<svg width="32" height="32" viewBox="0 0 32 32" fill="none" xmlns="http://www.w3.org/2000/svg">
<path d="M22 30C21.4696 30 20.9609 29.7893 20.5858 29.4142C20.2107 29.0391 20 28.5304 20 28L20 24C20 23.4696 20.2107 22.9609 20.5858 22.5858C20.9609 22.2107 21.4696 22 22 22L28 22C28.5304 22 29.0391 22.2107 29.4142 22.5858C29.7893 22.9609 30 23.4696 30 24L30 28C30 28.5304 29.7893 29.0391 29.4142 29.4142C29.0391 29.7893 28.5304 30 28 30L22 30ZM14 20C13.4696 20 12.9609 19.7893 12.5858 19.4142C12.2107 19.0391 12 18.5304 12 18L12 14C12 13.4696 12.2107 12.9609 12.5858 12.5858C12.9609 12.2107 13.4696 12 14 12L28 12C28.5304 12 29.0391 12.2107 29.4142 12.5858C29.7893 12.9609 30 13.4696 30 14L30 18C30 18.5304 29.7893 19.0391 29.4142 19.4142C29.0391 19.7893 28.5304 20 28 20L14 20ZM4 10C3.46957 10 2.96086 9.78929 2.58579 9.41421C2.21071 9.03914 2 8.53043 2 8L2 4C2 3.46957 2.21071 2.96086 2.58579 2.58579C2.96086 2.21071 3.46957 2 4 2L28 2C28.5304 2 29.0391 2.21071 29.4142 2.58579C29.7893 2.96086 30 3.46957 30 4L30 8C30 8.53043 29.7893 9.03914 29.4142 9.41421C29.0391 9.78928 28.5304 10 28 10L4 10Z" fill="white"/>
</svg>
