<svg width="25" height="25" viewBox="0 0 25 25" fill="none" xmlns="http://www.w3.org/2000/svg">
<path d="M9.375 7.03125C9.375 7.65285 9.12807 8.24899 8.68853 8.68853C8.24899 9.12807 7.65285 9.375 7.03125 9.375C6.40965 9.375 5.81351 9.12807 5.37397 8.68853C4.93443 8.24899 4.6875 7.65285 4.6875 7.03125C4.6875 6.40965 4.93443 5.81351 5.37397 5.37397C5.81351 4.93443 6.40965 4.6875 7.03125 4.6875C7.65285 4.6875 8.24899 4.93443 8.68853 5.37397C9.12807 5.81351 9.375 6.40965 9.375 7.03125ZM7.8125 7.03125C7.8125 6.82405 7.73019 6.62534 7.58368 6.47882C7.43716 6.33231 7.23845 6.25 7.03125 6.25C6.82405 6.25 6.62534 6.33231 6.47882 6.47882C6.33231 6.62534 6.25 6.82405 6.25 7.03125C6.25 7.23845 6.33231 7.43716 6.47882 7.58368C6.62534 7.73019 6.82405 7.8125 7.03125 7.8125C7.23845 7.8125 7.43716 7.73019 7.58368 7.58368C7.73019 7.43716 7.8125 7.23845 7.8125 7.03125Z" fill="white"/>
<path d="M3.125 1.5625H10.2906C10.705 1.56259 11.1024 1.72727 11.3953 2.02031L22.3328 12.9578C22.6257 13.2508 22.7903 13.6482 22.7903 14.0625C22.7903 14.4768 22.6257 14.8742 22.3328 15.1672L15.1672 22.3328C14.8742 22.6257 14.4768 22.7903 14.0625 22.7903C13.6482 22.7903 13.2508 22.6257 12.9578 22.3328L2.02031 11.3953C1.72727 11.1024 1.56259 10.705 1.5625 10.2906V3.125C1.5625 2.7106 1.72712 2.31317 2.02015 2.02015C2.31317 1.72712 2.7106 1.5625 3.125 1.5625ZM3.125 10.2906L14.0625 21.2281L21.2281 14.0625L10.2906 3.125H3.125V10.2906Z" fill="white"/>
</svg>
