<svg width="25" height="25" viewBox="0 0 25 25" fill="none" xmlns="http://www.w3.org/2000/svg">
<mask id="path-1-inside-1_6_86" fill="white">
<path fill-rule="evenodd" clip-rule="evenodd" d="M18.7623 4.84009C17.8869 4.53695 16.8496 4.46981 15.8558 4.70988C14.8619 4.94995 14.0992 5.45044 13.6687 6.0669C13.2382 6.68335 13.1428 7.41374 13.4838 8.11361C13.8247 8.81348 14.5354 9.35059 15.4108 9.65373C16.2863 9.95687 17.3235 10.024 18.3173 9.78394C19.3112 9.54386 20.074 9.04338 20.5044 8.42692C20.932 7.81046 21.0303 7.08008 20.6894 6.38021C20.3484 5.68034 19.6377 5.14323 18.7623 4.84009ZM5.98059 5.18799L6.04993 5.48096C6.32729 5.46875 6.57287 5.48096 6.78377 5.51758C6.99468 5.5542 7.18537 5.62541 7.36161 5.72917C7.4974 5.80851 7.61008 5.89193 7.69675 5.98145C7.78343 6.07096 7.83543 6.15641 7.85277 6.23779C7.87299 6.32731 7.8441 6.41276 7.76609 6.48804C7.68809 6.56535 7.58119 6.61011 7.44828 6.62638C7.19693 6.65487 7.00913 6.57756 6.89356 6.39648C6.75488 6.18083 6.51797 6.05469 6.17705 6.01807L6.43996 7.14315C6.77222 7.16756 7.03802 7.19401 7.23737 7.22249C7.43673 7.25098 7.62452 7.30387 7.79498 7.38322C7.977 7.4646 8.12724 7.56836 8.2457 7.69653C8.36415 7.82471 8.44216 7.97119 8.47972 8.13395C8.52883 8.33944 8.50572 8.53882 8.40749 8.73413C8.31215 8.92944 8.14458 9.09831 7.90477 9.24479C7.66497 9.38924 7.3645 9.493 7.00046 9.55607L7.15648 10.2295C7.18248 10.3353 7.18537 10.4146 7.16515 10.4675C7.14781 10.5204 7.09003 10.5509 6.98891 10.5632C6.89645 10.5733 6.82711 10.5611 6.78089 10.5265C6.73466 10.4919 6.70288 10.4309 6.68265 10.3475L6.51219 9.61711C6.20883 9.62931 5.93436 9.60897 5.69167 9.56014C5.44898 9.51131 5.24096 9.43807 5.06472 9.34245C4.88848 9.24683 4.7498 9.14103 4.65157 9.02913C4.55045 8.9152 4.48688 8.79924 4.46088 8.68327C4.44066 8.59782 4.46955 8.5144 4.55045 8.43302C4.63134 8.35368 4.74113 8.30485 4.8827 8.28654C4.99827 8.2723 5.09939 8.28044 5.18895 8.30892C5.27563 8.3374 5.34497 8.3842 5.39119 8.4493C5.4952 8.58968 5.58188 8.69547 5.65122 8.76872C5.72056 8.84196 5.8159 8.90503 5.93436 8.95589C6.05281 9.00879 6.20305 9.04338 6.38218 9.05762L6.08748 7.80029C5.72923 7.77181 5.42586 7.73112 5.17451 7.67619C4.92604 7.62126 4.70935 7.52564 4.53311 7.39136C4.35398 7.25708 4.23841 7.06991 4.18063 6.83187C4.1084 6.52262 4.1893 6.25 4.42332 6.0201C4.65734 5.7902 5.03583 5.62744 5.55877 5.53385L5.49232 5.24699C5.45764 5.09644 5.52121 5.01099 5.683 4.99268C5.84768 4.9764 5.94592 5.0415 5.98059 5.18799ZM5.92569 7.10042L5.683 6.06486C5.47787 6.13403 5.32474 6.21338 5.22073 6.30086C5.11672 6.38835 5.08205 6.50838 5.11961 6.6569C5.15139 6.79932 5.23518 6.90104 5.36519 6.96004C5.4952 7.02108 5.68011 7.06787 5.92569 7.10042ZM6.60176 7.84709L6.87912 9.03117C7.12759 8.96606 7.31249 8.86841 7.42806 8.74227C7.54363 8.61613 7.58407 8.47982 7.54941 8.33333C7.51185 8.17668 7.4165 8.06274 7.2576 7.99357C7.09869 7.9244 6.87912 7.87557 6.60176 7.84709ZM3.85704 2.08944C3.50168 1.61947 3.16653 1.13932 2.86606 0.649007C3.42367 0.0447595 6.06726 -0.189209 6.92823 0.170899L6.50064 1.42212C6.79533 1.02946 6.88778 0.872803 7.06691 0.653077C7.17092 0.685629 7.27204 0.724284 7.36739 0.767009C7.59563 0.870769 7.80654 0.990804 7.88744 1.18205C7.93944 1.30615 7.91922 1.44043 7.78921 1.59098L6.49197 3.09448C6.28106 3.09448 6.07015 3.08228 5.86213 3.05583C5.91702 2.8951 5.98925 2.71606 6.04415 2.5533L5.56454 3.066C4.93471 3.04565 4.45799 3.15755 4.04195 3.37931L2.09176 2.19116C1.97619 2.11995 1.91263 2.04264 1.8953 1.96126C1.82018 1.63167 2.4558 1.26343 2.79961 1.11084L3.85704 2.08944ZM6.52664 4.3335L5.96903 3.34676C7.37317 3.36711 10.0081 5.06388 10.9211 5.86955C11.3862 6.28052 11.8196 6.74235 12.2067 7.26929C12.695 8.02816 12.825 8.79517 12.4437 9.40959C14.9168 9.69645 16.1678 10.6832 17.1559 11.4685C17.5344 11.7676 18.0024 12.4288 18.6525 12.3454C19.8746 12.1908 23.5265 12.0483 23.8848 11.9588L25 14.2212C23.9397 14.4511 17.5113 15.1713 16.8699 15.0248C15.7662 14.7257 15.1104 14.3331 14.5412 13.9303L12.4263 16.158C13.0735 16.4327 13.7207 16.6443 14.3332 16.8457C16.4827 17.5517 18.2509 18.1335 18.6352 20.5383C18.6698 20.7499 18.6785 20.9595 18.6727 21.1731C18.6698 21.3888 18.6525 21.5841 18.638 21.7875V21.7936C18.6323 21.8608 18.6265 21.932 18.6178 22.0723L18.5225 24.0885L14.2523 24.0967C14.3303 22.3694 14.3158 23.348 14.3158 21.6268C14.3332 21.3969 14.3505 21.1833 14.3332 20.99C14.3187 20.8191 14.2754 20.6604 14.1801 20.5139L14.1512 20.4671C14.0472 20.3084 13.9547 20.1619 13.8825 20.1375C13.5473 20.0277 13.0013 19.8873 12.3714 19.7428C11.7416 19.5964 11.054 19.4499 10.427 19.3237C9.30313 21.9076 9.29735 22.5769 7.52629 24.9797L3.03363 24.998C4.75558 22.0174 4.97804 20.9066 6.30417 17.8243C4.4291 15.9424 7.60719 14.7074 8.27459 12.2762C7.70831 12.2396 6.32151 12.2213 5.12539 12.4654C3.63458 12.7686 2.5338 13.3077 1.62083 14.1581L0 12.0402C0.0982318 12.0321 0.286028 11.79 2.08887 11.0901C1.70461 10.9762 1.38102 10.8012 1.15567 10.5387C-0.205131 8.93148 1.07477 6.68335 2.38646 5.24496C2.55981 5.05575 2.74182 4.87671 2.9354 4.70988C3.43523 4.2806 3.96394 3.77808 4.67179 3.51359L4.16907 4.54915L4.99249 3.44442L5.54721 3.37931L6.52664 4.3335Z"/>
</mask>
<path fill-rule="evenodd" clip-rule="evenodd" d="M18.7623 4.84009C17.8869 4.53695 16.8496 4.46981 15.8558 4.70988C14.8619 4.94995 14.0992 5.45044 13.6687 6.0669C13.2382 6.68335 13.1428 7.41374 13.4838 8.11361C13.8247 8.81348 14.5354 9.35059 15.4108 9.65373C16.2863 9.95687 17.3235 10.024 18.3173 9.78394C19.3112 9.54386 20.074 9.04338 20.5044 8.42692C20.932 7.81046 21.0303 7.08008 20.6894 6.38021C20.3484 5.68034 19.6377 5.14323 18.7623 4.84009ZM5.98059 5.18799L6.04993 5.48096C6.32729 5.46875 6.57287 5.48096 6.78377 5.51758C6.99468 5.5542 7.18537 5.62541 7.36161 5.72917C7.4974 5.80851 7.61008 5.89193 7.69675 5.98145C7.78343 6.07096 7.83543 6.15641 7.85277 6.23779C7.87299 6.32731 7.8441 6.41276 7.76609 6.48804C7.68809 6.56535 7.58119 6.61011 7.44828 6.62638C7.19693 6.65487 7.00913 6.57756 6.89356 6.39648C6.75488 6.18083 6.51797 6.05469 6.17705 6.01807L6.43996 7.14315C6.77222 7.16756 7.03802 7.19401 7.23737 7.22249C7.43673 7.25098 7.62452 7.30387 7.79498 7.38322C7.977 7.4646 8.12724 7.56836 8.2457 7.69653C8.36415 7.82471 8.44216 7.97119 8.47972 8.13395C8.52883 8.33944 8.50572 8.53882 8.40749 8.73413C8.31215 8.92944 8.14458 9.09831 7.90477 9.24479C7.66497 9.38924 7.3645 9.493 7.00046 9.55607L7.15648 10.2295C7.18248 10.3353 7.18537 10.4146 7.16515 10.4675C7.14781 10.5204 7.09003 10.5509 6.98891 10.5632C6.89645 10.5733 6.82711 10.5611 6.78089 10.5265C6.73466 10.4919 6.70288 10.4309 6.68265 10.3475L6.51219 9.61711C6.20883 9.62931 5.93436 9.60897 5.69167 9.56014C5.44898 9.51131 5.24096 9.43807 5.06472 9.34245C4.88848 9.24683 4.7498 9.14103 4.65157 9.02913C4.55045 8.9152 4.48688 8.79924 4.46088 8.68327C4.44066 8.59782 4.46955 8.5144 4.55045 8.43302C4.63134 8.35368 4.74113 8.30485 4.8827 8.28654C4.99827 8.2723 5.09939 8.28044 5.18895 8.30892C5.27563 8.3374 5.34497 8.3842 5.39119 8.4493C5.4952 8.58968 5.58188 8.69547 5.65122 8.76872C5.72056 8.84196 5.8159 8.90503 5.93436 8.95589C6.05281 9.00879 6.20305 9.04338 6.38218 9.05762L6.08748 7.80029C5.72923 7.77181 5.42586 7.73112 5.17451 7.67619C4.92604 7.62126 4.70935 7.52564 4.53311 7.39136C4.35398 7.25708 4.23841 7.06991 4.18063 6.83187C4.1084 6.52262 4.1893 6.25 4.42332 6.0201C4.65734 5.7902 5.03583 5.62744 5.55877 5.53385L5.49232 5.24699C5.45764 5.09644 5.52121 5.01099 5.683 4.99268C5.84768 4.9764 5.94592 5.0415 5.98059 5.18799ZM5.92569 7.10042L5.683 6.06486C5.47787 6.13403 5.32474 6.21338 5.22073 6.30086C5.11672 6.38835 5.08205 6.50838 5.11961 6.6569C5.15139 6.79932 5.23518 6.90104 5.36519 6.96004C5.4952 7.02108 5.68011 7.06787 5.92569 7.10042ZM6.60176 7.84709L6.87912 9.03117C7.12759 8.96606 7.31249 8.86841 7.42806 8.74227C7.54363 8.61613 7.58407 8.47982 7.54941 8.33333C7.51185 8.17668 7.4165 8.06274 7.2576 7.99357C7.09869 7.9244 6.87912 7.87557 6.60176 7.84709ZM3.85704 2.08944C3.50168 1.61947 3.16653 1.13932 2.86606 0.649007C3.42367 0.0447595 6.06726 -0.189209 6.92823 0.170899L6.50064 1.42212C6.79533 1.02946 6.88778 0.872803 7.06691 0.653077C7.17092 0.685629 7.27204 0.724284 7.36739 0.767009C7.59563 0.870769 7.80654 0.990804 7.88744 1.18205C7.93944 1.30615 7.91922 1.44043 7.78921 1.59098L6.49197 3.09448C6.28106 3.09448 6.07015 3.08228 5.86213 3.05583C5.91702 2.8951 5.98925 2.71606 6.04415 2.5533L5.56454 3.066C4.93471 3.04565 4.45799 3.15755 4.04195 3.37931L2.09176 2.19116C1.97619 2.11995 1.91263 2.04264 1.8953 1.96126C1.82018 1.63167 2.4558 1.26343 2.79961 1.11084L3.85704 2.08944ZM6.52664 4.3335L5.96903 3.34676C7.37317 3.36711 10.0081 5.06388 10.9211 5.86955C11.3862 6.28052 11.8196 6.74235 12.2067 7.26929C12.695 8.02816 12.825 8.79517 12.4437 9.40959C14.9168 9.69645 16.1678 10.6832 17.1559 11.4685C17.5344 11.7676 18.0024 12.4288 18.6525 12.3454C19.8746 12.1908 23.5265 12.0483 23.8848 11.9588L25 14.2212C23.9397 14.4511 17.5113 15.1713 16.8699 15.0248C15.7662 14.7257 15.1104 14.3331 14.5412 13.9303L12.4263 16.158C13.0735 16.4327 13.7207 16.6443 14.3332 16.8457C16.4827 17.5517 18.2509 18.1335 18.6352 20.5383C18.6698 20.7499 18.6785 20.9595 18.6727 21.1731C18.6698 21.3888 18.6525 21.5841 18.638 21.7875V21.7936C18.6323 21.8608 18.6265 21.932 18.6178 22.0723L18.5225 24.0885L14.2523 24.0967C14.3303 22.3694 14.3158 23.348 14.3158 21.6268C14.3332 21.3969 14.3505 21.1833 14.3332 20.99C14.3187 20.8191 14.2754 20.6604 14.1801 20.5139L14.1512 20.4671C14.0472 20.3084 13.9547 20.1619 13.8825 20.1375C13.5473 20.0277 13.0013 19.8873 12.3714 19.7428C11.7416 19.5964 11.054 19.4499 10.427 19.3237C9.30313 21.9076 9.29735 22.5769 7.52629 24.9797L3.03363 24.998C4.75558 22.0174 4.97804 20.9066 6.30417 17.8243C4.4291 15.9424 7.60719 14.7074 8.27459 12.2762C7.70831 12.2396 6.32151 12.2213 5.12539 12.4654C3.63458 12.7686 2.5338 13.3077 1.62083 14.1581L0 12.0402C0.0982318 12.0321 0.286028 11.79 2.08887 11.0901C1.70461 10.9762 1.38102 10.8012 1.15567 10.5387C-0.205131 8.93148 1.07477 6.68335 2.38646 5.24496C2.55981 5.05575 2.74182 4.87671 2.9354 4.70988C3.43523 4.2806 3.96394 3.77808 4.67179 3.51359L4.16907 4.54915L4.99249 3.44442L5.54721 3.37931L6.52664 4.3335Z" stroke="white" stroke-width="2" mask="url(#path-1-inside-1_6_86)"/>
</svg>
