<svg width="25" height="25" viewBox="0 0 25 25" fill="none" xmlns="http://www.w3.org/2000/svg">
<g clip-path="url(#clip0_4_26)">
<path d="M12.5 6.25C12.7072 6.25 12.9059 6.33231 13.0524 6.47882C13.1989 6.62534 13.2812 6.82405 13.2812 7.03125V9.375C13.2812 9.5822 13.1989 9.78091 13.0524 9.92743C12.9059 10.0739 12.7072 10.1563 12.5 10.1563C12.2928 10.1563 12.0941 10.0739 11.9476 9.92743C11.8011 9.78091 11.7188 9.5822 11.7188 9.375V7.03125C11.7188 6.82405 11.8011 6.62534 11.9476 6.47882C12.0941 6.33231 12.2928 6.25 12.5 6.25ZM5.83125 8.95625C5.97776 8.80979 6.17643 8.72751 6.38359 8.72751C6.59075 8.72751 6.78943 8.80979 6.93594 8.95625L8.36563 10.3844C8.43826 10.457 8.49588 10.5432 8.53519 10.6382C8.5745 10.7331 8.59474 10.8348 8.59474 10.9375C8.59474 11.0402 8.5745 11.1419 8.53519 11.2368C8.49588 11.3318 8.43826 11.418 8.36563 11.4906C8.29299 11.5633 8.20675 11.6209 8.11185 11.6602C8.01694 11.6995 7.91523 11.7197 7.8125 11.7197C7.70977 11.7197 7.60806 11.6995 7.51315 11.6602C7.41825 11.6209 7.33201 11.5633 7.25937 11.4906L5.83125 10.0609C5.68479 9.91443 5.60251 9.71575 5.60251 9.50859C5.60251 9.30143 5.68479 9.10276 5.83125 8.95625ZM3.125 15.625C3.125 15.4178 3.20731 15.2191 3.35382 15.0726C3.50034 14.9261 3.69905 14.8438 3.90625 14.8438H6.38437C6.59158 14.8438 6.79029 14.9261 6.9368 15.0726C7.08331 15.2191 7.16563 15.4178 7.16563 15.625C7.16563 15.8322 7.08331 16.0309 6.9368 16.1774C6.79029 16.3239 6.59158 16.4063 6.38437 16.4063H3.90625C3.69905 16.4063 3.50034 16.3239 3.35382 16.1774C3.20731 16.0309 3.125 15.8322 3.125 15.625ZM17.9688 15.625C17.9688 15.4178 18.0511 15.2191 18.1976 15.0726C18.3441 14.9261 18.5428 14.8438 18.75 14.8438H21.0938C21.301 14.8438 21.4997 14.9261 21.6462 15.0726C21.7927 15.2191 21.875 15.4178 21.875 15.625C21.875 15.8322 21.7927 16.0309 21.6462 16.1774C21.4997 16.3239 21.301 16.4063 21.0938 16.4063H18.75C18.5428 16.4063 18.3441 16.3239 18.1976 16.1774C18.0511 16.0309 17.9688 15.8322 17.9688 15.625ZM19.1469 8.99063C19.0386 8.88295 18.8938 8.81995 18.7413 8.81416C18.5887 8.80837 18.4395 8.86021 18.3234 8.95938L11.7922 14.5469C11.64 14.6751 11.5164 14.8338 11.4295 15.0128C11.3425 15.1918 11.2941 15.387 11.2873 15.5859C11.2805 15.7847 11.3156 15.9828 11.3902 16.1673C11.4648 16.3518 11.5773 16.5185 11.7204 16.6568C11.8635 16.7951 12.034 16.9017 12.2209 16.97C12.4078 17.0382 12.607 17.0664 12.8055 17.0528C13.0041 17.0392 13.1975 16.9841 13.3734 16.891C13.5493 16.7979 13.7037 16.669 13.8266 16.5125L19.1922 9.79844C19.2855 9.68159 19.3325 9.53442 19.3242 9.38509C19.3158 9.23577 19.2527 9.09476 19.1469 8.98906V8.99063Z" fill="white"/>
<path fill-rule="evenodd" clip-rule="evenodd" d="M8.29349e-06 15.625C0.00164168 13.8059 0.400278 12.0092 1.16809 10.3601C1.9359 8.71101 3.05438 7.24938 4.44545 6.07724C5.83652 4.90511 7.46666 4.0507 9.22206 3.57368C10.9775 3.09666 12.8158 3.00851 14.6088 3.3154C16.4018 3.62228 18.1062 4.3168 19.603 5.35047C21.0999 6.38414 22.3531 7.73205 23.2751 9.3001C24.1972 10.8682 24.7659 12.6186 24.9416 14.4291C25.1173 16.2397 24.8956 18.0668 24.2922 19.7828C23.6016 21.7406 21.4094 22.2859 19.7109 21.7359C17.6703 21.075 14.8047 20.3125 12.5 20.3125C10.1969 20.3125 7.32813 21.075 5.28907 21.7359C3.59063 22.2859 1.39845 21.7406 0.707821 19.7828C0.23773 18.4471 -0.0016241 17.0411 8.29349e-06 15.625ZM12.5 4.68751C10.7506 4.68706 9.02658 5.10625 7.47268 5.9099C5.91878 6.71355 4.58032 7.87822 3.56964 9.30616C2.55896 10.7341 1.90555 12.3836 1.66424 14.1163C1.42293 15.849 1.60076 17.6143 2.18282 19.2641C2.50001 20.1625 3.62501 20.6328 4.80782 20.2484C6.87032 19.5828 9.93438 18.75 12.5 18.75C15.0656 18.75 18.1313 19.5813 20.1922 20.25C21.375 20.6328 22.5 20.1625 22.8172 19.2641C23.3993 17.6143 23.5771 15.849 23.3358 14.1163C23.0945 12.3836 22.4411 10.7341 21.4304 9.30616C20.4197 7.87822 19.0812 6.71355 17.5273 5.9099C15.9734 5.10625 14.2494 4.68706 12.5 4.68751Z" fill="white"/>
</g>
<defs>
<clipPath id="clip0_4_26">
<rect width="25" height="25" fill="white"/>
</clipPath>
</defs>
</svg>
