<svg width="25" height="25" viewBox="0 0 25 25" fill="none" xmlns="http://www.w3.org/2000/svg">
<g clip-path="url(#clip0_9_109)">
<path fill-rule="evenodd" clip-rule="evenodd" d="M9.2927 21.9726H9.19977H1.61959C1.19089 21.9708 0.780526 21.8391 0.477915 21.6064C0.326117 21.4924 0.205631 21.3563 0.123554 21.206C0.0414771 21.0558 -0.000530737 20.8945 5.06154e-06 20.7316V1.24104C-0.000530737 1.07816 0.0414771 0.916846 0.123554 0.7666C0.205631 0.616354 0.326117 0.480214 0.477915 0.3662C0.626705 0.249881 0.80437 0.157555 1.00044 0.0946613C1.19652 0.0317677 1.40703 -0.00042195 1.61959 -1.13803e-05H21.3918C21.8196 0.00240646 22.2288 0.133996 22.5308 0.3662C22.6831 0.480044 22.8041 0.616107 22.8866 0.766361C22.9691 0.916614 23.0116 1.07801 23.0114 1.24104V12.972L21.8591 11.9222C21.794 11.8605 21.7211 11.8039 21.6414 11.7533V8.59374H1.39125V20.7703C1.39106 20.7932 1.39709 20.8158 1.40898 20.8369C1.42087 20.8579 1.43834 20.8768 1.46029 20.8923C1.48039 20.9092 1.50507 20.9225 1.53259 20.9313C1.56011 20.9401 1.5898 20.9441 1.61959 20.9432L8.71124 20.9269C8.69597 21.2392 8.83324 21.5446 9.09622 21.7834L9.2927 21.9726ZM24.9336 18.6361L14.7701 25L10.3547 20.9737L10.9574 20.4691L14.1992 23.3968L14.2391 23.4355C14.3126 23.5012 14.4024 23.5552 14.5031 23.5944C14.6039 23.6335 14.7138 23.6571 14.8265 23.6637C14.9392 23.6703 15.0525 23.6598 15.1599 23.6329C15.2673 23.606 15.3667 23.5631 15.4524 23.5067L15.7843 23.2869L17.3534 22.2371L24.2566 18.0216L24.923 18.632L24.9336 18.6361ZM24.992 16.744L14.8205 23.112L10.4105 19.0837L20.582 12.7177L25 16.7419L24.992 16.744ZM19.0686 17.7287C19.1371 17.9597 19.1145 18.2011 19.0037 18.4223C18.8929 18.6435 18.6988 18.8345 18.4462 18.9711C18.1936 19.1077 17.8937 19.1837 17.5846 19.1895C17.2755 19.1953 16.9711 19.1307 16.71 19.0038C16.4489 18.8769 16.2429 18.6934 16.118 18.4767C15.9931 18.2599 15.9551 18.0197 16.0086 17.7863C16.0622 17.553 16.205 17.3371 16.4189 17.166C16.6328 16.9949 16.9081 16.8764 17.2101 16.8253C17.6127 16.7573 18.0342 16.8141 18.3824 16.9834C18.7306 17.1526 18.9773 17.4205 19.0686 17.7287ZM22.637 17.22L15.8533 21.401C15.6788 21.2443 15.4307 21.1466 15.1629 21.1291C14.895 21.1116 14.6289 21.1756 14.4223 21.3074L12.6752 19.7164C12.7769 19.6508 12.8607 19.5705 12.9219 19.4801C12.983 19.3897 13.0204 19.291 13.0317 19.1895C13.0431 19.088 13.0282 18.9859 12.988 18.8888C12.9478 18.7918 12.883 18.7017 12.7974 18.6239L19.5837 14.445C19.7574 14.602 20.0051 14.6999 20.2727 14.7175C20.5403 14.735 20.8062 14.6707 21.0121 14.5386L22.7618 16.1295C22.5557 16.2624 22.4269 16.4525 22.4035 16.6581C22.3801 16.8637 22.4641 17.068 22.637 17.2261V17.22ZM18.7474 10.3353V11.0901C18.7481 11.0978 18.7467 11.1056 18.7433 11.1128C18.7399 11.1201 18.7345 11.1268 18.7274 11.1323C18.7204 11.1379 18.7119 11.1423 18.7026 11.1452C18.6932 11.1481 18.6831 11.1494 18.673 11.1491H13.0098C12.9997 11.1494 12.9896 11.1481 12.9802 11.1452C12.9708 11.1423 12.9624 11.1379 12.9553 11.1323C12.9483 11.1268 12.9429 11.1201 12.9395 11.1128C12.9361 11.1056 12.9347 11.0978 12.9354 11.0901V10.3353C12.9347 10.3276 12.9361 10.3198 12.9395 10.3125C12.9429 10.3052 12.9483 10.2986 12.9553 10.293C12.9624 10.2874 12.9708 10.2831 12.9802 10.2802C12.9896 10.2773 12.9997 10.276 13.0098 10.2763H18.673C18.6831 10.276 18.6932 10.2773 18.7026 10.2802C18.7119 10.2831 18.7204 10.2874 18.7274 10.293C18.7345 10.2986 18.7399 10.3052 18.7433 10.3125C18.7467 10.3198 18.7481 10.3276 18.7474 10.3353ZM16.6233 12.266V13.0208C16.6237 13.0286 16.622 13.0363 16.6182 13.0435C16.6144 13.0507 16.6087 13.0571 16.6015 13.0625C16.5942 13.0679 16.5855 13.0721 16.576 13.0747C16.5665 13.0773 16.5564 13.0784 16.5463 13.0778H13.0231C13.013 13.0784 13.0028 13.0773 12.9933 13.0747C12.9838 13.0721 12.9752 13.0679 12.9679 13.0625C12.9606 13.0571 12.9549 13.0507 12.9512 13.0435C12.9474 13.0363 12.9457 13.0286 12.9461 13.0208V12.266C12.9457 12.2583 12.9474 12.2506 12.9512 12.2434C12.9549 12.2362 12.9606 12.2297 12.9679 12.2243C12.9752 12.2189 12.9838 12.2148 12.9933 12.2122C13.0028 12.2095 13.013 12.2085 13.0231 12.2091H16.5543C16.5739 12.21 16.5924 12.2162 16.6065 12.2266C16.6206 12.2371 16.6294 12.2511 16.6313 12.266H16.6233ZM7.45275 2.9073H8.90772C8.92012 2.9067 8.93255 2.90813 8.94418 2.9115C8.9558 2.91487 8.96636 2.92009 8.97515 2.92683C8.98394 2.93356 8.99076 2.94166 8.99516 2.95057C8.99955 2.95947 9.00142 2.969 9.00064 2.9785V6.87255C9.00104 6.88189 8.99888 6.89119 8.99431 6.89985C8.98975 6.90852 8.98287 6.91635 8.97412 6.92287C8.96537 6.92938 8.95495 6.93442 8.94352 6.93766C8.93208 6.94091 8.91989 6.94229 8.90772 6.94172H7.46071C7.44865 6.94232 7.43657 6.94094 7.42526 6.93767C7.41396 6.93441 7.40369 6.92934 7.39515 6.92279C7.3866 6.91624 7.37998 6.90837 7.37572 6.89971C7.37146 6.89105 7.36966 6.88179 7.37044 6.87255V2.9785C7.36926 2.9691 7.37076 2.95962 7.37484 2.9507C7.37892 2.94179 7.38548 2.93367 7.39407 2.92689C7.40266 2.92012 7.41307 2.91485 7.42457 2.91147C7.43608 2.90809 7.44841 2.90666 7.46071 2.9073H7.45275ZM10.7689 4.38842H12.2239C12.2361 4.38751 12.2485 4.38866 12.2602 4.39179C12.2718 4.39491 12.2824 4.39994 12.2912 4.40652C12.3001 4.4131 12.3069 4.42108 12.3114 4.4299C12.3158 4.43872 12.3176 4.44817 12.3168 4.45759V6.85831C12.3172 6.86765 12.315 6.87695 12.3105 6.88561C12.3059 6.89427 12.299 6.90211 12.2903 6.90862C12.2815 6.91513 12.2711 6.92018 12.2597 6.92342C12.2482 6.92667 12.2361 6.92805 12.2239 6.92748H10.7769C10.7649 6.92776 10.753 6.92617 10.7419 6.92279C10.7308 6.91941 10.7207 6.91433 10.7122 6.90785C10.7038 6.90137 10.6971 6.89363 10.6927 6.88511C10.6883 6.87659 10.6862 6.86747 10.6866 6.85831V4.45759C10.6879 4.43956 10.6978 4.42253 10.7145 4.40976C10.7311 4.397 10.7533 4.38939 10.7769 4.38842H10.7689ZM17.4065 4.38842H18.8615C18.8736 4.38782 18.8857 4.3892 18.897 4.39246C18.9083 4.39573 18.9185 4.4008 18.9271 4.40735C18.9356 4.4139 18.9422 4.42176 18.9465 4.43043C18.9508 4.43909 18.9526 4.44835 18.9518 4.45759V6.85831C18.9522 6.86747 18.9501 6.87659 18.9457 6.88511C18.9413 6.89363 18.9346 6.90137 18.9262 6.90785C18.9177 6.91433 18.9076 6.91941 18.8965 6.92279C18.8854 6.92617 18.8735 6.92776 18.8615 6.92748H17.4145C17.4023 6.92805 17.3901 6.92667 17.3787 6.92342C17.3673 6.92018 17.3569 6.91513 17.3481 6.90862C17.3394 6.90211 17.3325 6.89427 17.3279 6.88561C17.3234 6.87695 17.3212 6.86765 17.3216 6.85831V4.45759C17.3235 4.43938 17.334 4.42233 17.3511 4.4096C17.3682 4.39688 17.3907 4.38935 17.4145 4.38842H17.4065ZM14.0877 2.9073H15.5427C15.5551 2.9067 15.5675 2.90813 15.5792 2.9115C15.5908 2.91487 15.6013 2.92009 15.6101 2.92683C15.6189 2.93356 15.6257 2.94166 15.6301 2.95057C15.6345 2.95947 15.6364 2.969 15.6356 2.9785V6.87255C15.636 6.88189 15.6339 6.89119 15.6293 6.89985C15.6247 6.90852 15.6179 6.91635 15.6091 6.92287C15.6004 6.92938 15.5899 6.93442 15.5785 6.93766C15.5671 6.94091 15.5549 6.94229 15.5427 6.94172H14.0957C14.0835 6.94229 14.0713 6.94091 14.0599 6.93766C14.0485 6.93442 14.038 6.92938 14.0293 6.92287C14.0205 6.91635 14.0137 6.90852 14.0091 6.89985C14.0045 6.89119 14.0024 6.88189 14.0028 6.87255V2.9785C14.002 2.969 14.0039 2.95947 14.0083 2.95057C14.0127 2.94166 14.0195 2.93356 14.0283 2.92683C14.037 2.92009 14.0476 2.91487 14.0592 2.9115C14.0709 2.90813 14.0833 2.9067 14.0957 2.9073H14.0877ZM4.1472 3.44237H5.59952C5.61192 3.44178 5.62435 3.44321 5.63598 3.44658C5.64761 3.44994 5.65816 3.45517 5.66695 3.4619C5.67574 3.46864 5.68256 3.47673 5.68696 3.48564C5.69135 3.49455 5.69322 3.50407 5.69244 3.51358V6.87255C5.69284 6.88189 5.69068 6.89119 5.68611 6.89985C5.68155 6.90852 5.67467 6.91635 5.66592 6.92287C5.65718 6.92938 5.64675 6.93442 5.63532 6.93766C5.62388 6.94091 5.61169 6.94229 5.59952 6.94172H4.1472C4.13503 6.94229 4.12284 6.94091 4.1114 6.93766C4.09997 6.93442 4.08954 6.92938 4.0808 6.92287C4.07205 6.91635 4.06517 6.90852 4.06061 6.89985C4.05604 6.89119 4.05388 6.88189 4.05428 6.87255V3.51358C4.03569 3.47085 4.09145 3.44237 4.1472 3.44237ZM7.51381 13.4806L10.6016 13.5233C10.6028 13.9377 10.4709 14.346 10.2177 14.7121C9.96441 15.0783 9.59752 15.3911 9.14933 15.623L7.51381 13.4806ZM7.34389 12.7563L7.30672 10.0016V9.82055L7.54567 9.83479C7.83392 9.85022 8.11943 9.8877 8.39795 9.94669C8.66804 10.0046 8.92962 10.0837 9.17853 10.1827C9.81299 10.4394 10.3493 10.8183 10.7348 11.282C11.1202 11.7458 11.3415 12.2784 11.3769 12.8275L11.3955 13.0086H11.1512L7.57222 12.9252H7.38106L7.34389 12.7584V12.7563ZM7.78197 12.5895L10.9229 12.6587C10.8561 12.199 10.6442 11.7588 10.3056 11.376C9.96698 10.9931 9.51181 10.6792 8.9794 10.4614C8.64904 10.3335 8.29692 10.2418 7.93331 10.1888C7.86959 10.1888 7.80852 10.1725 7.7448 10.1684L7.78197 12.5895ZM6.47834 13.2344L8.23068 15.5721C7.69398 15.808 7.08642 15.9328 6.46772 15.9342C5.55269 15.9258 4.67781 15.645 4.02795 15.1513C3.37809 14.6576 3.00418 13.9897 2.98522 13.2886C2.96626 12.5875 3.30374 11.9083 3.92635 11.3944C4.54895 10.8805 5.40791 10.5722 6.32169 10.5347L6.46772 13.2344H6.47834ZM21.6414 7.70059V1.24104C21.6426 1.21821 21.6373 1.19546 21.6258 1.17437C21.6143 1.15328 21.597 1.13437 21.575 1.11897C21.5547 1.10215 21.53 1.08876 21.5026 1.07965C21.4752 1.07054 21.4456 1.06592 21.4157 1.06607H1.61959C1.58962 1.06553 1.55986 1.06998 1.53235 1.07911C1.50485 1.08824 1.48026 1.10184 1.46029 1.11897C1.43593 1.13297 1.41676 1.15159 1.40465 1.17299C1.39255 1.1944 1.38793 1.21785 1.39125 1.24104V7.70059H21.6414Z" fill="white"/>
</g>
<defs>
<clipPath id="clip0_9_109">
<rect width="25" height="25" fill="white"/>
</clipPath>
</defs>
</svg>
