<svg width="25" height="25" viewBox="0 0 25 25" fill="none" xmlns="http://www.w3.org/2000/svg">
<path d="M16.528 14.7588C16.9395 14.7588 17.273 15.0813 17.273 15.4784C17.273 15.876 16.9395 16.198 16.528 16.198H5.4895C5.078 16.198 4.7445 15.876 4.7445 15.4784C4.7445 15.0813 5.078 14.7588 5.4895 14.7588H16.528ZM22.017 2.99011H22.964C23.5245 2.99011 24.034 3.21355 24.4025 3.5731L24.45 3.62384C24.7905 3.97998 25 4.45613 25 4.97668V23.0134C25 23.5584 24.7705 24.055 24.401 24.4155C24.034 24.7766 23.5245 25 22.964 25H5.0185C4.461 25 3.9525 24.7766 3.583 24.417L3.58 24.4146C3.211 24.0521 2.983 23.5569 2.983 23.0134V22.0099H2.036C1.4785 22.0099 0.97 21.7865 0.6005 21.4274L0.5975 21.4245C0.2285 21.0625 0 20.5668 0 20.0238V1.98657C0 1.44261 0.229 0.946452 0.5975 0.585922L0.6005 0.582995C0.9715 0.222953 1.479 0 2.036 0H19.9815C20.542 0 21.0515 0.223441 21.42 0.582995L21.467 0.633733C21.8075 0.989872 22.017 1.46603 22.017 1.98657V2.99011ZM3.542 20.5492C3.60386 20.5335 3.66756 20.5256 3.7315 20.5258C3.797 20.5258 3.86 20.5336 3.9205 20.5492H19.9815C20.1285 20.5492 20.2635 20.4897 20.361 20.3941C20.46 20.3009 20.52 20.1692 20.52 20.0238V1.98657C20.52 1.85339 20.47 1.7324 20.3885 1.64068L20.361 1.6158C20.2635 1.52018 20.1285 1.46066 19.9815 1.46066H2.036C1.887 1.46066 1.752 1.5192 1.656 1.61287L1.653 1.6158C1.60327 1.66454 1.56389 1.72239 1.53712 1.78601C1.51035 1.84964 1.49672 1.9178 1.497 1.98657V20.0238C1.497 20.1692 1.557 20.3009 1.653 20.3941L1.656 20.397C1.70599 20.4455 1.76528 20.4839 1.83048 20.51C1.89568 20.5361 1.96552 20.5495 2.036 20.5492H3.542V20.5492ZM4.48 22.0099V23.0134C4.48 23.1593 4.54 23.291 4.636 23.3842L4.639 23.3871C4.7345 23.4808 4.8695 23.5393 5.0185 23.5393H22.964C23.111 23.5393 23.246 23.4798 23.344 23.3842C23.443 23.291 23.503 23.1593 23.503 23.0134V4.97668C23.503 4.84349 23.453 4.7225 23.371 4.63079L23.344 4.60591C23.246 4.51028 23.111 4.45077 22.964 4.45077H22.017V20.0238C22.017 20.5683 21.7875 21.0649 21.4185 21.4259C21.0515 21.7865 20.542 22.0099 19.9815 22.0099H4.48V22.0099ZM16.528 5.8119C16.9395 5.8119 17.273 6.13438 17.273 6.5315C17.273 6.9291 16.9395 7.25158 16.528 7.25158H5.4895C5.078 7.25158 4.7445 6.9291 4.7445 6.5315C4.7445 6.13438 5.078 5.8119 5.4895 5.8119H16.528ZM16.528 10.2856C16.9395 10.2856 17.273 10.6076 17.273 11.0052C17.273 11.4028 16.9395 11.7248 16.528 11.7248H5.4895C5.078 11.7248 4.7445 11.4028 4.7445 11.0052C4.7445 10.6076 5.078 10.2856 5.4895 10.2856H16.528Z" fill="white"/>
</svg>
