<svg width="50" height="64" viewBox="0 0 50 64" fill="none" xmlns="http://www.w3.org/2000/svg">
<g clip-path="url(#clip0_36_1850)">
<path fill-rule="evenodd" clip-rule="evenodd" d="M1.50456 29.1854H6.16546V28.6255V19.3318C6.16546 14.0167 8.33854 9.18386 11.8351 5.68229V5.6776C15.3333 2.17552 20.1617 0 25.4745 0C30.7831 0 35.6105 2.17552 39.1086 5.6776L39.1138 5.68229C42.6104 9.18386 44.7835 14.0167 44.7835 19.3318V28.6255V29.1854H48.496C49.3232 29.1854 50.0005 29.8635 50.0005 30.6911V62.4943C50.0005 63.3219 49.3232 64 48.496 64H1.50456C0.677363 64 0 63.3219 0 62.4943V30.6911C0 29.8635 0.677363 29.1854 1.50456 29.1854ZM13.6674 29.1854H37.2799V28.6255V19.2245C37.2799 15.9745 35.9512 13.0177 33.814 10.8755L33.8114 10.8776C31.6727 8.7349 28.7198 7.40417 25.4745 7.40417C22.2276 7.40417 19.2747 8.73438 17.1333 10.8755C14.9956 13.0177 13.6674 15.9745 13.6674 19.2245V28.626V29.1854ZM25.5697 46.5875L27.9529 57.5974L21.4202 57.625L23.3373 46.4672C21.5523 45.8943 20.2585 44.2198 20.2585 42.2427C20.2585 39.7943 22.2406 37.8099 24.6873 37.8099C27.1315 37.8099 29.1152 39.7943 29.1152 42.2427C29.1152 44.3885 27.5919 46.1786 25.5697 46.5875Z" fill="white"/>
</g>
<defs>
<clipPath id="clip0_36_1850">
<rect width="50" height="64" fill="white"/>
</clipPath>
</defs>
</svg>
