<svg width="25" height="25" viewBox="0 0 25 25" fill="none" xmlns="http://www.w3.org/2000/svg">
<g clip-path="url(#clip0_9_121)">
<path d="M2.74638 11.8536H13.7398C14.2129 11.8536 14.5965 12.1431 14.5965 12.5002C14.5965 12.8575 14.2129 13.147 13.7398 13.147H2.74692L6.33717 16.2201C6.64913 16.4866 6.61619 16.8937 6.2634 17.1293C5.91034 17.3651 5.37108 17.3403 5.05885 17.0738L0.213955 12.9268C-0.0759544 12.6794 -0.0683327 12.3106 0.216949 12.0703L5.05912 7.92643C5.37108 7.65971 5.91061 7.63489 6.26367 7.87089C6.61646 8.10649 6.6494 8.51379 6.33744 8.78031L2.74638 11.8536ZM5.71597 4.73043C5.71597 5.08769 5.32862 5.3772 4.85088 5.3772C4.37287 5.3772 3.9855 5.08769 3.9855 4.73043V1.83288C3.9855 1.32934 4.26234 0.870766 4.70633 0.538939C5.15086 0.206907 5.76443 0.000202179 6.43762 0.000202179H22.5476C23.2213 0.000202179 23.8352 0.206501 24.2797 0.538532C24.7234 0.870157 25 1.32812 25 1.83288V23.1671C25 23.6717 24.7242 24.13 24.2803 24.4621C23.8363 24.7939 23.223 25 22.5476 25H6.43789C5.76307 25 5.15004 24.7933 4.70606 24.4617C4.26153 24.1294 3.98577 23.6705 3.98577 23.1671V20.2698C3.98577 19.9127 4.37314 19.6232 4.85115 19.6232C5.32889 19.6232 5.71625 19.9127 5.71625 20.2698V23.1671C5.71625 23.314 5.79819 23.4489 5.92994 23.5474C6.06115 23.6454 6.24135 23.7067 6.43816 23.7067H22.5476C22.7452 23.7067 22.9257 23.6456 23.0567 23.5476C23.1881 23.4497 23.2695 23.3148 23.2695 23.1671V1.83288C23.2695 1.68559 23.1876 1.55111 23.0564 1.45304C22.9246 1.35457 22.7441 1.29333 22.5476 1.29333H6.43789C6.2419 1.29333 6.06196 1.35478 5.93021 1.45325C5.79819 1.55172 5.71597 1.6864 5.71597 1.83288V4.73043Z" fill="#FF0000"/>
</g>
<defs>
<clipPath id="clip0_9_121">
<rect width="25" height="25" fill="white" transform="translate(25 25) rotate(-180)"/>
</clipPath>
</defs>
</svg>
