<svg width="54" height="54" viewBox="0 0 54 54" fill="none" xmlns="http://www.w3.org/2000/svg">
<path d="M11.8125 38.8125C9.69867 38.8121 7.62367 38.2444 5.80398 37.1688C3.98429 36.0931 2.48658 34.5488 1.46708 32.6971C0.447592 30.8454 -0.0563273 28.754 0.0078958 26.6411C0.0721189 24.5283 0.702131 22.4713 1.83221 20.6849C2.96229 18.8985 4.55103 17.4481 6.43269 16.4849C8.31435 15.5218 10.42 15.0812 12.53 15.2092C14.6399 15.3371 16.6769 16.0289 18.4284 17.2124C20.1799 18.3958 21.5817 20.0276 22.4876 21.9375H47.25L52.3125 27L47.25 32.0625L43.875 28.6875L40.5 32.0625L37.125 28.6875L33.75 32.0625L30.375 28.6875L27 32.0625H22.4876C21.5294 34.0825 20.0177 35.7892 18.128 36.984C16.2383 38.1789 14.0483 38.813 11.8125 38.8125ZM8.4375 30.375C9.33261 30.375 10.1911 30.0194 10.824 29.3865C11.4569 28.7536 11.8125 27.8951 11.8125 27C11.8125 26.1049 11.4569 25.2465 10.824 24.6135C10.1911 23.9806 9.33261 23.625 8.4375 23.625C7.5424 23.625 6.68395 23.9806 6.05102 24.6135C5.41808 25.2465 5.0625 26.1049 5.0625 27C5.0625 27.8951 5.41808 28.7536 6.05102 29.3865C6.68395 30.0194 7.5424 30.375 8.4375 30.375Z" fill="white"/>
</svg>
