<svg width="85" height="85" viewBox="0 0 85 85" fill="none" xmlns="http://www.w3.org/2000/svg">
<g clip-path="url(#clip0_2_10)">
<path fill-rule="evenodd" clip-rule="evenodd" d="M17.4792 28.386V57.2256H41.8125C41.8386 57.153 41.8698 57.0805 41.901 57.008L41.9479 56.8941L43.6666 52.7505H26.7969C26.7969 50.0571 24.8437 48.1562 22.4896 48.177V36.782C23.6114 36.7548 24.6773 36.2897 25.4571 35.4872C26.2367 34.6846 26.6675 33.6092 26.6563 32.4934H58.375C58.375 35.1918 60.3334 37.0876 62.6979 37.0721V40.5786C62.9739 40.387 63.2188 40.1849 63.5 39.9829C65.3657 38.5792 66.8204 36.7052 67.7136 34.5548L67.6719 28.3808L17.4792 28.386ZM46.5521 58.7535L53.0416 43.1528L55.5521 48.5913C63.4896 47.0374 70.8594 41.9149 72.8385 34.9381C77.0052 45.9445 69.2656 55.5059 60.5521 59.4476L63.125 65.0259L46.5521 58.7535ZM48.3698 39.6463C47.7642 38.5044 46.8339 37.5652 45.6949 36.9458C44.556 36.3264 43.2589 36.0542 41.9654 36.1633C40.6719 36.2723 39.4394 36.7578 38.4215 37.559C37.4037 38.3603 36.6457 39.4418 36.2421 40.6688C35.8384 41.8957 35.8069 43.2137 36.1518 44.4582C36.4965 45.7028 37.2021 46.8189 38.1806 47.6672C39.1592 48.5155 40.3672 49.0584 41.654 49.2283C42.9409 49.3982 44.2495 49.1874 45.4167 48.6224L48.3958 41.4643C48.5138 41.1802 48.6585 40.9079 48.8282 40.6511C48.7161 40.2934 48.5714 39.9467 48.3958 39.6152L48.3698 39.6463ZM10 21V47.8662H13.4531V28.298C13.4447 27.857 13.5288 27.4191 13.7003 27.0123C13.8717 26.6056 14.1266 26.2388 14.4486 25.9356C14.7707 25.6324 15.1529 25.3993 15.5707 25.2514C15.9885 25.1034 16.4327 25.0438 16.875 25.0763H57.5573L57.526 21H10Z" fill="black"/>
</g>
<defs>
<clipPath id="clip0_2_10">
<rect width="64" height="44" fill="white" transform="translate(10 21)"/>
</clipPath>
</defs>
</svg>
