<svg width="90" height="62" viewBox="0 0 90 62" fill="none" xmlns="http://www.w3.org/2000/svg">
<g clip-path="url(#clip0_46_14)">
<path fill-rule="evenodd" clip-rule="evenodd" d="M10.5176 10.4075V51.0451H44.7363C44.773 50.9429 44.8169 50.8407 44.8608 50.7386L44.9268 50.578L47.3437 44.7393H23.6206C23.6206 40.9441 20.874 38.2656 17.5635 38.2948V22.2383C19.141 22.2 20.64 21.5446 21.7365 20.4138C22.8329 19.2829 23.4387 17.7675 23.4229 16.1952H68.0273C68.0273 19.9976 70.7813 22.6689 74.1064 22.647V27.588C74.4946 27.318 74.8389 27.0333 75.2344 26.7487C77.858 24.7707 79.9037 22.13 81.1597 19.0999L81.1011 10.4002L10.5176 10.4075ZM51.4014 53.1981L60.5273 31.2153L64.0576 38.8786C75.2197 36.6891 85.5835 29.471 88.3667 19.64C94.2261 35.1491 83.3423 48.622 71.0889 54.1761L74.707 62.0365L51.4014 53.1981ZM53.9575 26.2743C53.1059 24.6653 51.7977 23.3419 50.196 22.4691C48.5944 21.5963 46.7703 21.2128 44.9513 21.3665C43.1324 21.5201 41.3991 22.2042 39.9678 23.3332C38.5365 24.4622 37.4705 25.9862 36.9029 27.7151C36.3352 29.4439 36.291 31.3011 36.7759 33.0548C37.2607 34.8085 38.253 36.3812 39.629 37.5765C41.0051 38.7718 42.7039 39.5368 44.5135 39.7762C46.3231 40.0156 48.1634 39.7186 49.8047 38.9224L53.9941 28.836C54.16 28.4358 54.3635 28.0521 54.6021 27.6902C54.4445 27.1862 54.241 26.6976 53.9941 26.2305L53.9575 26.2743ZM0 0V37.8569H4.85596V10.2835C4.84407 9.6621 4.96244 9.0451 5.2035 8.47192C5.44456 7.89874 5.803 7.38199 6.2559 6.95473C6.70881 6.52746 7.2462 6.19908 7.83373 5.99058C8.42126 5.78207 9.04599 5.69804 9.66797 5.74385H66.8774L66.8335 0H0Z" fill="black"/>
</g>
<defs>
<clipPath id="clip0_46_14">
<rect width="90" height="62" fill="white"/>
</clipPath>
</defs>
</svg>
