<svg width="25" height="25" viewBox="0 0 25 25" fill="none" xmlns="http://www.w3.org/2000/svg">
<path d="M23.5423 20.4167V0.416667C23.5423 0.166667 23.3757 0 23.1257 0H4.37565C4.12565 0 3.95898 0.166667 3.95898 0.416667V6.25H4.79232V0.833333H22.709V20H18.959C18.709 20 18.5423 20.1667 18.5423 20.4167V24.1667H4.79232V17.9167H3.95898V24.5833C3.95898 24.8333 4.12565 25 4.37565 25H18.959C19.084 25 19.1673 24.9583 19.2507 24.875L23.4173 20.7083C23.459 20.6667 23.459 20.625 23.5007 20.5833V20.5417C23.5423 20.5 23.5423 20.4583 23.5423 20.4167ZM19.3757 20.8333H22.1257L20.7507 22.2083L19.3757 23.5833V20.8333Z" fill="white"/>
<path d="M6.87565 15.8333H9.37565H11.0423V15H9.79232V7.08332C9.79232 6.83332 9.62565 6.66666 9.37565 6.66666H6.87565C6.62565 6.66666 6.45898 6.83332 6.45898 7.08332V9.58332H4.37565C4.12565 9.58332 3.95898 9.74999 3.95898 9.99999V11.6667H1.87565C1.62565 11.6667 1.45898 11.8333 1.45898 12.0833V15.4167C1.45898 15.6667 1.62565 15.8333 1.87565 15.8333H4.37565H6.87565ZM7.29232 7.49999H8.95898V15H7.29232V9.99999V7.49999ZM4.79232 10.4167H6.45898V15H4.79232V12.0833V10.4167ZM2.29232 12.5H3.95898V15H2.29232V12.5Z" fill="white"/>
<path d="M21.0423 10V2.91667C21.0423 2.66667 20.8757 2.5 20.6257 2.5H11.8757C11.6257 2.5 11.459 2.66667 11.459 2.91667V10C11.459 10.25 11.6257 10.4167 11.8757 10.4167H20.6257C20.8757 10.4167 21.0423 10.25 21.0423 10ZM20.209 5H15.209V3.33333H20.209V5ZM14.3757 3.33333V5H12.2923C12.2923 4.33333 12.2923 3.33333 12.2923 3.33333H14.3757ZM12.2923 5.83333H14.3757V9.58333H12.2923C12.2923 9.58333 12.2923 7.625 12.2923 5.83333ZM15.209 9.58333V5.83333H20.209V9.58333H15.209Z" fill="white"/>
<path d="M20.625 11.6667H11.875V12.5H20.625V11.6667Z" fill="white"/>
<path d="M20.625 13.75H11.875V14.5833H20.625V13.75Z" fill="white"/>
<path d="M20.625 15.8333H11.875V16.6667H20.625V15.8333Z" fill="white"/>
<path d="M8.54297 2.5H6.04297V3.33333H8.54297V2.5Z" fill="white"/>
<path d="M9.79297 4.58334H6.04297V5.41668H9.79297V4.58334Z" fill="white"/>
<path d="M8.95964 17.9167H6.04297V18.75H8.95964V17.9167Z" fill="white"/>
<path d="M13.1257 17.9167H10.209V18.75H13.1257V17.9167Z" fill="white"/>
<path d="M17.2917 17.9167H14.375V18.75H17.2917V17.9167Z" fill="white"/>
<path d="M8.95964 20H6.04297V20.8333H8.95964V20Z" fill="white"/>
<path d="M13.1257 20H10.209V20.8333H13.1257V20Z" fill="white"/>
<path d="M17.2917 20H14.375V20.8333H17.2917V20Z" fill="white"/>
<path d="M8.95964 22.0833H6.04297V22.9167H8.95964V22.0833Z" fill="white"/>
<path d="M13.1257 22.0833H10.209V22.9167H13.1257V22.0833Z" fill="white"/>
<path d="M17.2917 22.0833H14.375V22.9167H17.2917V22.0833Z" fill="white"/>
</svg>
