<svg width="65" height="65" viewBox="0 0 65 65" fill="none" xmlns="http://www.w3.org/2000/svg">
<g clip-path="url(#clip0_17_20)">
<path d="M21.0954 27.7555V52.7546H13.4729V27.7555H21.0954ZM61.9849 46.3043V52.749H54.3624V46.3043H61.9849ZM48.3533 39.5264V52.7433H40.7308V39.5264H48.3533ZM34.727 34.861V52.7433H27.1045V34.861H34.727Z" fill="#FF4141"/>
<path d="M6.72323 8.30858V57.8154H64.9365V65H3.36426C1.50757 65 0 63.3903 0 61.4077V8.30858H6.72323ZM64.4922 24.7563C65.3174 25.9085 65.1111 27.5578 64.032 28.4389L55.0977 35.7082C54.0186 36.5893 52.474 36.3691 51.6488 35.2168C50.8236 34.0646 51.0299 32.4153 52.109 31.5342L55.6319 28.6705C47.856 27.8572 40.3923 25.5244 33.833 22.1581C25.2425 17.9953 17.8634 11.3473 13.7162 3.97073C13.018 2.72812 13.3988 1.11272 14.5626 0.372797C15.7263 -0.372772 17.2392 0.033902 17.9321 1.27652C21.5873 7.77765 28.21 13.7027 36.4091 17.9106C42.196 20.8816 48.75 22.9827 55.5843 23.8243L52.5745 21.2261C51.5165 20.3168 51.3473 18.6618 52.1989 17.5322C53.0505 16.4025 54.6004 16.2218 55.6584 17.1311L64.4922 24.7563Z" fill="#393939"/>
</g>
<defs>
<clipPath id="clip0_17_20">
<rect width="65" height="65" fill="white"/>
</clipPath>
</defs>
</svg>
