<svg width="25" height="25" viewBox="0 0 25 25" fill="none" xmlns="http://www.w3.org/2000/svg">
<g clip-path="url(#clip0_12_128)">
<path d="M12.7906 1.73906C12.6041 1.6643 12.3959 1.6643 12.2094 1.73906L2.88437 5.46875L6.64062 6.97031L16.2563 3.125L12.7906 1.73906ZM18.3594 3.96719L8.74375 7.8125L12.5 9.31406L22.1156 5.46875L18.3594 3.96719ZM23.4375 6.62344L13.2812 10.6859V23.0641L23.4375 19.0016V6.625V6.62344ZM11.7188 23.0656V10.6844L1.5625 6.62344V19.0031L11.7188 23.0656ZM11.6297 0.287498C12.1884 0.0640591 12.8116 0.0640591 13.3703 0.287498L24.5094 4.74375C24.6542 4.80179 24.7783 4.90186 24.8658 5.03108C24.9532 5.16029 25 5.31273 25 5.46875V19.0031C24.9998 19.3153 24.9061 19.6203 24.7309 19.8788C24.5557 20.1372 24.3071 20.3373 24.0172 20.4531L12.7906 24.9437C12.6041 25.0185 12.3959 25.0185 12.2094 24.9437L0.984375 20.4531C0.694142 20.3375 0.445223 20.1376 0.269753 19.8791C0.0942839 19.6207 0.000322389 19.3155 0 19.0031L0 5.46875C3.63124e-05 5.31273 0.0467871 5.16029 0.13423 5.03108C0.221672 4.90186 0.345801 4.80179 0.490625 4.74375L11.6297 0.287498Z" fill="white"/>
</g>
<defs>
<clipPath id="clip0_12_128">
<rect width="25" height="25" fill="white"/>
</clipPath>
</defs>
</svg>
