<svg width="25" height="25" viewBox="0 0 25 25" fill="none" xmlns="http://www.w3.org/2000/svg">
<g clip-path="url(#clip0_9_104)">
<path d="M6.21383 13.3036L6.06711 17.5212L4.45321 16.4388L2.8393 17.336L3.172 12.8154L0.8865 12.5061V21.9828L9.30525 22.9248V13.6414L6.21383 13.3036ZM20.2285 1.21053C20.3153 1.19425 20.4042 1.21053 20.4786 1.25529C20.6046 1.30615 20.6935 1.42822 20.6956 1.57267L20.7679 11.3363L24.4648 11.8144C24.5516 11.7981 24.6404 11.8144 24.7148 11.8591C24.8409 11.91 24.9297 12.0321 24.9318 12.1765L25.0041 22.1842C25.0103 22.3063 24.9483 22.4284 24.8347 22.4955L20.6832 24.9329C20.6253 24.9756 20.5509 25.002 20.4724 25.002C20.4538 25.002 20.4331 25 20.4166 24.998L9.64415 23.818C9.61728 23.8159 9.59248 23.8119 9.56769 23.8057L0.336822 22.6379C0.150841 22.6298 0.00412269 22.4772 0.00412269 22.2941V12.1155C-1.02222e-05 11.9792 0.0785151 11.8469 0.212835 11.79L5.07314 9.68425V2.69368C5.06901 2.55737 5.14753 2.42513 5.28185 2.36816L10.6856 0.0284828C10.7414 0.00406878 10.8055 -0.00610375 10.8716 0.00203427L20.2285 1.21053ZM20.4331 11.9873L17.1846 13.8957L20.4104 14.3005L23.4997 12.384L20.4331 11.9873ZM5.07314 11.32V10.437L1.62629 11.9283L3.60389 12.1765L5.07314 11.32ZM16.5854 4.44133V13.446L19.6871 11.6231L20.0653 11.3078L19.9992 2.32341L16.5854 4.44133ZM15.6968 13.6678V4.35384L11.289 3.77604L11.1382 8.09937L9.52429 7.01701L7.91039 7.91423L8.24309 3.39355L5.7716 3.08228V12.559L15.6968 13.6678ZM15.1575 1.25122L11.7685 3.14535L16.1762 3.69873L19.2656 1.78223L15.1575 1.25122ZM8.67704 2.75472L11.9627 0.836182L10.8799 0.695801L6.69944 2.50448L8.67704 2.75472ZM20.8195 15.0431V24.0479L24.3015 22.0032L24.2333 12.9252L20.8195 15.0431ZM19.931 24.2696V14.9557L15.5232 14.3778L15.3724 18.7012L13.7585 17.6188L12.1446 18.516L12.4773 13.9954L10.1918 13.7756V23.2524L19.931 24.2696Z" fill="white"/>
</g>
<defs>
<clipPath id="clip0_9_104">
<rect width="25" height="25" fill="white"/>
</clipPath>
</defs>
</svg>
