<svg width="85" height="85" viewBox="0 0 85 85" fill="none" xmlns="http://www.w3.org/2000/svg">
<g clip-path="url(#clip0_2_10)">
<path d="M31.0954 37.7555V62.7546H23.4729V37.7555H31.0954ZM71.9849 56.3043V62.749H64.3624V56.3043H71.9849ZM58.3533 49.5264V62.7433H50.7308V49.5264H58.3533ZM44.727 44.861V62.7433H37.1045V44.861H44.727Z" fill="#FF4141"/>
<path d="M16.7232 18.3086V67.8154H74.9365V75H13.3643C11.5076 75 10 73.3903 10 71.4077V18.3086H16.7232ZM74.4922 34.7563C75.3174 35.9085 75.1111 37.5578 74.032 38.4389L65.0977 45.7082C64.0186 46.5893 62.474 46.3691 61.6488 45.2168C60.8236 44.0646 61.0299 42.4153 62.109 41.5342L65.6319 38.6705C57.856 37.8572 50.3923 35.5244 43.833 32.1581C35.2425 27.9953 27.8634 21.3473 23.7162 13.9707C23.018 12.7281 23.3988 11.1127 24.5626 10.3728C25.7263 9.62723 27.2392 10.0339 27.9321 11.2765C31.5873 17.7776 38.21 23.7027 46.4091 27.9106C52.196 30.8816 58.75 32.9827 65.5843 33.8243L62.5745 31.2261C61.5165 30.3168 61.3473 28.6618 62.1989 27.5322C63.0505 26.4025 64.6004 26.2218 65.6584 27.1311L74.4922 34.7563Z" fill="#393939"/>
</g>
<defs>
<clipPath id="clip0_2_10">
<rect width="65" height="65" fill="white" transform="translate(10 10)"/>
</clipPath>
</defs>
</svg>
