<svg width="25" height="25" viewBox="0 0 25 25" fill="none" xmlns="http://www.w3.org/2000/svg">
<g clip-path="url(#clip0_12_137)">
<path fill-rule="evenodd" clip-rule="evenodd" d="M21.3643 16.5767C20.2047 16.5767 19.2688 18.4699 19.2688 20.7884C19.2688 23.1191 20.2108 25 21.3643 25C22.524 25 23.4599 23.1068 23.4599 20.7884C23.4599 18.4576 22.5179 16.5767 21.3643 16.5767ZM12.5854 16.9529C11.5275 16.9529 10.6771 18.6784 10.6771 20.7884C10.6771 22.9146 11.5356 24.6238 12.5854 24.6238C13.6434 24.6238 14.4938 22.8983 14.4938 20.7884C14.4938 18.6621 13.6352 16.9529 12.5854 16.9529ZM12.5854 19.3122C12.1806 19.3122 11.851 19.9746 11.851 20.7884C11.851 21.6021 12.1806 22.2645 12.5854 22.2645C12.9903 22.2645 13.3199 21.6021 13.3199 20.7884C13.3199 19.9746 12.9903 19.3122 12.5854 19.3122ZM4.90517 16.9529C3.84723 16.9529 2.99681 18.6784 2.99681 20.7884C2.99681 22.9146 3.85537 24.6238 4.90517 24.6238C5.96311 24.6238 6.81354 22.8983 6.81354 20.7884C6.81557 18.6621 5.95701 16.9529 4.90517 16.9529ZM4.90517 19.3122C4.50031 19.3122 4.17072 19.9746 4.17072 20.7884C4.17072 21.6021 4.50031 22.2645 4.90517 22.2645C5.31004 22.2645 5.63963 21.6021 5.63963 20.7884C5.63963 19.9746 5.31207 19.3122 4.90517 19.3122ZM9.63743 21.8883H7.75144V20.6575H9.63743V21.8883ZM2.12807 21.8883H1.14541C0.830058 21.8883 0.545227 21.6184 0.339742 21.1891C0.134257 20.7597 0.00404867 20.1668 0.00404867 19.5453V3.29571C0.00404867 2.298 -0.0691935 1.48021 0.333638 0.670592C0.541158 0.257605 0.823954 0 1.1393 0H16.0563C16.3716 0 16.6565 0.257605 16.862 0.674681C17.0674 1.08767 17.1977 1.66012 17.1977 2.29392V5.26251L19.2871 5.29113L20.0236 5.29931C20.1721 5.62234 20.3084 5.95355 20.4325 6.28885C20.9839 7.77723 21.2931 9.53549 21.3521 11.2406L24.6846 13.8044L25 20.5553H23.9807C23.5107 13.1829 18.8883 14.0783 18.7459 20.5553H17.1977V21.2668C17.1977 21.6184 17.0613 21.8883 16.8884 21.8883H15.5273V20.6452H16.5771V2.29392C16.5771 2.00769 16.5202 1.75008 16.4225 1.55381C16.3249 1.35754 16.1967 1.24305 16.0543 1.24305H1.1393C0.996887 1.24305 0.868713 1.36163 0.771057 1.55381C0.561503 1.95044 0.624573 2.62921 0.624573 3.14851V19.5453C0.624573 19.8438 0.689677 20.13 0.785299 20.3345C0.882955 20.5307 1.00503 20.6575 1.14541 20.6575H2.12604V21.8883H2.12807ZM19.2179 7.31518L18.0318 7.27838V11.2406H20.2738C20.166 9.80536 19.8344 8.54596 19.2179 7.31518ZM21.3643 19.1691C20.9188 19.1691 20.5587 19.8929 20.5587 20.7884C20.5587 21.6838 20.9188 22.4076 21.3643 22.4076C21.8099 22.4076 22.17 21.6838 22.17 20.7884C22.17 19.8929 21.8099 19.1691 21.3643 19.1691Z" fill="white"/>
</g>
<defs>
<clipPath id="clip0_12_137">
<rect width="25" height="25" fill="white"/>
</clipPath>
</defs>
</svg>
