<svg width="32" height="25" viewBox="0 0 32 25" fill="none" xmlns="http://www.w3.org/2000/svg">
<path fill-rule="evenodd" clip-rule="evenodd" d="M2.32813 0H29.6719C30.9531 0 32 1.04742 32 2.32934C32 3.61126 30.9531 4.65868 29.6719 4.65868H2.32813C1.04687 4.65868 0 3.61126 0 2.32934C0 1.04742 1.04687 0 2.32813 0ZM2.32813 20.3413H29.6719C30.9531 20.3413 32 21.3887 32 22.6707C32 23.9526 30.9531 25 29.6719 25H2.32813C1.04687 25 0 23.9526 0 22.6707C0 21.3887 1.04687 20.3413 2.32813 20.3413ZM2.32813 10.1694H29.6719C30.9531 10.1694 32 11.2168 32 12.4987C32 13.7806 30.9531 14.828 29.6719 14.828H2.32813C1.04687 14.828 0 13.7806 0 12.4987C0 11.2194 1.04687 10.1694 2.32813 10.1694Z" fill="white"/>
</svg>
