<svg width="25" height="25" viewBox="0 0 25 25" fill="none" xmlns="http://www.w3.org/2000/svg">
<path d="M12.5 15.625C13.3288 15.625 14.1237 15.2958 14.7097 14.7097C15.2958 14.1237 15.625 13.3288 15.625 12.5C15.625 11.6712 15.2958 10.8763 14.7097 10.2903C14.1237 9.70424 13.3288 9.375 12.5 9.375C11.6712 9.375 10.8763 9.70424 10.2903 10.2903C9.70424 10.8763 9.375 11.6712 9.375 12.5C9.375 13.3288 9.70424 14.1237 10.2903 14.7097C10.8763 15.2958 11.6712 15.625 12.5 15.625Z" fill="white"/>
<path d="M0 6.25C0 5.8356 0.16462 5.43817 0.457646 5.14515C0.750671 4.85212 1.1481 4.6875 1.5625 4.6875H23.4375C23.8519 4.6875 24.2493 4.85212 24.5424 5.14515C24.8354 5.43817 25 5.8356 25 6.25V18.75C25 19.1644 24.8354 19.5618 24.5424 19.8549C24.2493 20.1479 23.8519 20.3125 23.4375 20.3125H1.5625C1.1481 20.3125 0.750671 20.1479 0.457646 19.8549C0.16462 19.5618 0 19.1644 0 18.75V6.25ZM4.6875 6.25C4.6875 7.0788 4.35826 7.87366 3.77221 8.45971C3.18616 9.04576 2.3913 9.375 1.5625 9.375V15.625C2.3913 15.625 3.18616 15.9542 3.77221 16.5403C4.35826 17.1263 4.6875 17.9212 4.6875 18.75H20.3125C20.3125 17.9212 20.6417 17.1263 21.2278 16.5403C21.8138 15.9542 22.6087 15.625 23.4375 15.625V9.375C22.6087 9.375 21.8138 9.04576 21.2278 8.45971C20.6417 7.87366 20.3125 7.0788 20.3125 6.25H4.6875Z" fill="white"/>
</svg>
