<svg width="85" height="85" viewBox="0 0 85 85" fill="none" xmlns="http://www.w3.org/2000/svg">
<path fill-rule="evenodd" clip-rule="evenodd" d="M24.1257 25.1549L66 35.9349L59.8743 58.8284L18 48.0651L24.1257 25.1549ZM63.8458 23.2845L48.6172 28.4753L51.1416 23.3896C45.397 18.8741 39.6138 17.8171 33.3556 20.7888C38.9896 11.0824 48.2472 9.66015 56.2012 13.2074L58.7806 8L63.8458 23.2845ZM20.2094 60.721L35.4159 55.5137L32.8806 60.6159C38.625 65.1315 44.4083 66.1829 50.672 63.2168C45.0269 72.9176 35.786 74.3509 27.8375 70.7926L25.2525 76L20.1763 60.721H20.2094ZM43.8449 35.2653C45.1711 35.6274 46.3607 36.3748 47.2635 37.4134C48.1663 38.452 48.7419 39.7352 48.9176 41.1011C49.0934 42.467 48.8615 43.8544 48.2511 45.0885C47.6408 46.3225 46.6794 47.3478 45.4881 48.035C44.2968 48.7223 42.9292 49.0407 41.5575 48.9502C40.1858 48.8596 38.8716 48.3642 37.7806 47.5263C36.6897 46.6884 35.8709 45.5456 35.4274 44.242C34.9839 42.9384 34.9357 41.5325 35.2888 40.2015C35.5234 39.316 35.9303 38.4856 36.4861 37.758C37.0419 37.0304 37.7357 36.4201 38.5276 35.9619C39.3196 35.5038 40.1941 35.2069 41.1009 35.0883C42.0077 34.9697 42.9289 35.0317 43.8117 35.2708L43.8449 35.2653ZM30.5883 30.6279L57.687 37.4401C57.4492 38.3368 57.5762 39.2914 58.0401 40.0944C58.5041 40.8975 59.267 41.4833 60.1615 41.7233L57.7699 50.7767C56.8741 50.5383 55.9206 50.6654 55.1182 51.1301C54.3157 51.5948 53.7299 52.3592 53.4891 53.2559L26.313 46.4492C26.4316 46.0052 26.4615 45.5421 26.4013 45.0865C26.341 44.6308 26.1917 44.1916 25.9619 43.7937C25.7321 43.396 25.4262 43.0474 25.0619 42.7682C24.6975 42.4888 24.2818 42.2842 23.8384 42.166L26.2522 33.1126C27.1494 33.3513 28.1045 33.2246 28.9086 32.7601C29.7128 32.2955 30.3007 31.531 30.5441 30.6334L30.5883 30.6279Z" fill="black"/>
</svg>
