<svg width="61" height="87" viewBox="0 0 61 87" fill="none" xmlns="http://www.w3.org/2000/svg">
<path fill-rule="evenodd" clip-rule="evenodd" d="M7.7847 21.9482L61 35.7402L53.2153 65.0305L0 51.2598L7.7847 21.9482ZM58.2624 19.5552L38.9094 26.1963L42.1174 19.6897C34.817 13.9124 27.4675 12.5601 19.5144 16.3621C26.6743 3.9436 38.4391 2.12402 48.5473 6.66235L51.8254 0L58.2624 19.5552ZM2.80783 67.4519L22.1327 60.7896L18.9107 67.3174C26.211 73.0947 33.5605 74.4399 41.5207 70.645C34.3467 83.0564 22.603 84.8901 12.5018 80.3376L9.21669 87L2.76571 67.4519H2.80783ZM32.8445 34.8835C34.53 35.3468 36.0417 36.3031 37.189 37.6319C38.3363 38.9607 39.0678 40.6024 39.2911 42.3499C39.5145 44.0975 39.2198 45.8726 38.4441 47.4514C37.6685 49.0302 36.4467 50.342 34.9328 51.2213C33.4189 52.1006 31.6808 52.508 29.9376 52.3922C28.1944 52.2763 26.5243 51.6424 25.1379 50.5704C23.7515 49.4984 22.7109 48.0363 22.1473 46.3685C21.5837 44.7006 21.5225 42.9019 21.9712 41.199C22.2693 40.066 22.7864 39.0036 23.4928 38.0728C24.1991 37.1419 25.0808 36.361 26.0872 35.7748C27.0937 35.1887 28.205 34.8088 29.3574 34.6571C30.5098 34.5053 31.6805 34.5847 32.8024 34.8906L32.8445 34.8835ZM15.9976 28.9504L50.4356 37.666C50.1333 38.8133 50.2947 40.0346 50.8843 41.062C51.4739 42.0894 52.4435 42.8389 53.5803 43.146L50.5409 54.729C49.4025 54.424 48.1907 54.5866 47.171 55.1811C46.1512 55.7757 45.4068 56.7537 45.1007 57.9009L10.5644 49.1924C10.7151 48.6243 10.7532 48.0318 10.6766 47.4489C10.6 46.8659 10.4103 46.3039 10.1182 45.7949C9.82616 45.286 9.4375 44.8401 8.97446 44.4828C8.51142 44.1254 7.98309 43.8636 7.41968 43.7124L10.4872 32.1294C11.6274 32.4348 12.8411 32.2726 13.863 31.6783C14.885 31.0839 15.6322 30.1058 15.9414 28.9575L15.9976 28.9504Z" fill="black"/>
</svg>
